G75*
%MOIN*%
%OFA0B0*%
%FSLAX25Y25*%
%IPPOS*%
%LPD*%
%AMOC8*
5,1,8,0,0,1.08239X$1,22.5*
%
%ADD10R,0.03150X0.04724*%
%ADD11R,0.04724X0.03150*%
%ADD12R,0.05787X0.05000*%
%ADD13R,0.03898X0.02717*%
D10*
X0092957Y0061500D03*
X0100043Y0061500D03*
X0100043Y0081500D03*
X0092957Y0081500D03*
X0055043Y0086500D03*
X0047957Y0086500D03*
X0092957Y0131500D03*
X0100043Y0131500D03*
X0100043Y0151500D03*
X0092957Y0151500D03*
X0055043Y0156500D03*
X0047957Y0156500D03*
X0092957Y0201500D03*
X0100043Y0201500D03*
X0100043Y0221500D03*
X0092957Y0221500D03*
X0055043Y0226500D03*
X0047957Y0226500D03*
X0092957Y0271500D03*
X0100043Y0271500D03*
X0100043Y0291500D03*
X0092957Y0291500D03*
X0055043Y0296500D03*
X0047957Y0296500D03*
X0152957Y0276500D03*
X0160043Y0276500D03*
X0182957Y0281500D03*
X0190043Y0281500D03*
X0227957Y0271500D03*
X0235043Y0271500D03*
X0235043Y0291500D03*
X0227957Y0291500D03*
X0287957Y0276500D03*
X0295043Y0276500D03*
X0317957Y0281500D03*
X0325043Y0281500D03*
X0362957Y0271500D03*
X0370043Y0271500D03*
X0370043Y0291500D03*
X0362957Y0291500D03*
X0422957Y0276500D03*
X0430043Y0276500D03*
X0452957Y0281500D03*
X0460043Y0281500D03*
X0482957Y0266500D03*
X0490043Y0266500D03*
X0522957Y0286500D03*
X0530043Y0286500D03*
X0530043Y0241500D03*
X0522957Y0241500D03*
X0490043Y0221500D03*
X0482957Y0221500D03*
X0460043Y0211500D03*
X0452957Y0211500D03*
X0430293Y0206500D03*
X0423207Y0206500D03*
X0370043Y0201500D03*
X0362957Y0201500D03*
X0362957Y0221500D03*
X0370043Y0221500D03*
X0325043Y0211500D03*
X0317957Y0211500D03*
X0295043Y0206500D03*
X0287957Y0206500D03*
X0235043Y0201500D03*
X0227957Y0201500D03*
X0227957Y0221500D03*
X0235043Y0221500D03*
X0190043Y0211500D03*
X0182957Y0211500D03*
X0160043Y0206500D03*
X0152957Y0206500D03*
X0227957Y0151500D03*
X0235043Y0151500D03*
X0235043Y0131500D03*
X0227957Y0131500D03*
X0190043Y0141500D03*
X0182957Y0141500D03*
X0160043Y0136500D03*
X0152957Y0136500D03*
X0227957Y0081500D03*
X0235043Y0081500D03*
X0235043Y0061500D03*
X0227957Y0061500D03*
X0190043Y0071500D03*
X0182957Y0071500D03*
X0160043Y0066500D03*
X0152957Y0066500D03*
X0287957Y0066500D03*
X0295043Y0066500D03*
X0317957Y0071500D03*
X0325043Y0071500D03*
X0362957Y0081500D03*
X0370043Y0081500D03*
X0422957Y0066500D03*
X0430043Y0066500D03*
X0452957Y0071500D03*
X0460043Y0071500D03*
X0482957Y0086500D03*
X0490043Y0086500D03*
X0522957Y0106500D03*
X0530043Y0106500D03*
X0490043Y0131500D03*
X0482957Y0131500D03*
X0460043Y0141500D03*
X0452957Y0141500D03*
X0429793Y0136500D03*
X0422707Y0136500D03*
X0370043Y0151500D03*
X0362957Y0151500D03*
X0325043Y0141500D03*
X0317957Y0141500D03*
X0295043Y0136500D03*
X0287957Y0136500D03*
X0482957Y0176500D03*
X0490043Y0176500D03*
X0522957Y0196500D03*
X0530043Y0196500D03*
X0530043Y0151500D03*
X0522957Y0151500D03*
X0260043Y0346500D03*
X0252957Y0346500D03*
D11*
X0051500Y0047957D03*
X0051500Y0055043D03*
X0051500Y0117957D03*
X0051500Y0125043D03*
X0051500Y0187957D03*
X0051500Y0195043D03*
X0051500Y0257957D03*
X0051500Y0265043D03*
X0032750Y0307957D03*
X0025250Y0307957D03*
X0025250Y0315043D03*
X0032750Y0315043D03*
X0254000Y0319207D03*
X0254000Y0326293D03*
X0254000Y0331707D03*
X0254000Y0338793D03*
D12*
X0045250Y0329965D03*
X0045250Y0313035D03*
D13*
X0136421Y0285240D03*
X0136421Y0281500D03*
X0136421Y0277760D03*
X0146618Y0277760D03*
X0146618Y0285240D03*
X0146618Y0215240D03*
X0146618Y0207760D03*
X0136421Y0207760D03*
X0136421Y0211500D03*
X0136421Y0215240D03*
X0136421Y0145240D03*
X0136421Y0141500D03*
X0136421Y0137760D03*
X0146618Y0137760D03*
X0146618Y0145240D03*
X0146618Y0075240D03*
X0146618Y0067760D03*
X0136421Y0067760D03*
X0136421Y0071500D03*
X0136421Y0075240D03*
X0271421Y0075240D03*
X0271421Y0071500D03*
X0271421Y0067760D03*
X0281618Y0067760D03*
X0281618Y0075240D03*
X0281618Y0137760D03*
X0271421Y0137760D03*
X0271421Y0141500D03*
X0271421Y0145240D03*
X0281618Y0145240D03*
X0281618Y0207760D03*
X0271421Y0207760D03*
X0271421Y0211500D03*
X0271421Y0215240D03*
X0281618Y0215240D03*
X0281618Y0277760D03*
X0271421Y0277760D03*
X0271421Y0281500D03*
X0271421Y0285240D03*
X0281618Y0285240D03*
X0406421Y0285240D03*
X0406421Y0281500D03*
X0406421Y0277760D03*
X0416618Y0277760D03*
X0416618Y0285240D03*
X0496421Y0285240D03*
X0496421Y0281500D03*
X0496421Y0277760D03*
X0506618Y0277760D03*
X0506618Y0285240D03*
X0506618Y0240240D03*
X0506618Y0232760D03*
X0496421Y0232760D03*
X0496421Y0236500D03*
X0496421Y0240240D03*
X0496421Y0195240D03*
X0496421Y0191500D03*
X0496421Y0187760D03*
X0506618Y0187760D03*
X0506618Y0195240D03*
X0506618Y0150240D03*
X0506618Y0142760D03*
X0496421Y0142760D03*
X0496421Y0146500D03*
X0496421Y0150240D03*
X0496421Y0105240D03*
X0496421Y0101500D03*
X0496421Y0097760D03*
X0506618Y0097760D03*
X0506618Y0105240D03*
X0416618Y0075240D03*
X0416618Y0067760D03*
X0406421Y0067760D03*
X0406421Y0071500D03*
X0406421Y0075240D03*
X0406421Y0137760D03*
X0406421Y0141500D03*
X0406421Y0145240D03*
X0416618Y0145240D03*
X0416618Y0137760D03*
X0416618Y0207760D03*
X0416618Y0215240D03*
X0406421Y0215240D03*
X0406421Y0211500D03*
X0406421Y0207760D03*
M02*
