G75*
%MOIN*%
%OFA0B0*%
%FSLAX25Y25*%
%IPPOS*%
%LPD*%
%AMOC8*
5,1,8,0,0,1.08239X$1,22.5*
%
%ADD10C,0.01600*%
%ADD11C,0.01000*%
%ADD12C,0.00600*%
%ADD13C,0.00800*%
%ADD14C,0.00039*%
%ADD15C,0.00500*%
%ADD16C,0.00295*%
%ADD17C,0.00400*%
D10*
X0216500Y0041500D02*
X0216500Y0311500D01*
X0196500Y0321500D02*
X0196500Y0341500D01*
X0111500Y0341500D01*
X0111500Y0334200D01*
X0106500Y0334200D01*
X0106500Y0329200D01*
X0111500Y0329200D01*
X0111500Y0334200D01*
X0119000Y0331500D02*
X0124000Y0331500D01*
X0121500Y0329000D02*
X0121500Y0334000D01*
X0111500Y0329200D02*
X0111500Y0321500D01*
X0196500Y0321500D01*
X0189000Y0331500D02*
X0184000Y0331500D01*
X0351500Y0311500D02*
X0351500Y0041500D01*
X0361500Y0321500D02*
X0361500Y0329200D01*
X0356500Y0329200D01*
X0356500Y0334200D01*
X0361500Y0334200D01*
X0361500Y0341500D01*
X0446500Y0341500D01*
X0446500Y0321500D01*
X0361500Y0321500D01*
X0361500Y0329200D02*
X0361500Y0334200D01*
X0369000Y0331500D02*
X0374000Y0331500D01*
X0371500Y0329000D02*
X0371500Y0334000D01*
X0434000Y0331500D02*
X0439000Y0331500D01*
D11*
X0456500Y0316500D02*
X0493800Y0316500D01*
X0493800Y0346500D01*
X0456500Y0346500D01*
X0346500Y0346500D02*
X0309200Y0346500D01*
X0309200Y0316500D01*
X0346500Y0316500D01*
X0243800Y0316500D02*
X0243800Y0346500D01*
X0206500Y0346500D01*
X0206500Y0316500D02*
X0243800Y0316500D01*
X0096500Y0316500D02*
X0059200Y0316500D01*
X0059200Y0346500D01*
X0096500Y0346500D01*
D12*
X0049138Y0052681D02*
X0049138Y0050319D01*
X0053862Y0050319D02*
X0053862Y0052681D01*
X0056300Y0053048D02*
X0056300Y0052180D01*
X0056734Y0051747D01*
X0057167Y0051747D01*
X0057601Y0052180D01*
X0057601Y0053048D01*
X0057167Y0053481D01*
X0056734Y0053481D01*
X0056300Y0053048D01*
X0057601Y0053048D02*
X0058035Y0053481D01*
X0058469Y0053481D01*
X0058902Y0053048D01*
X0058902Y0052180D01*
X0058469Y0051747D01*
X0058035Y0051747D01*
X0057601Y0052180D01*
X0057601Y0050535D02*
X0057167Y0050101D01*
X0057167Y0048800D01*
X0056300Y0048800D02*
X0058902Y0048800D01*
X0058902Y0050101D01*
X0058469Y0050535D01*
X0057601Y0050535D01*
X0057167Y0049667D02*
X0056300Y0050535D01*
X0092822Y0066734D02*
X0092822Y0067167D01*
X0093256Y0067601D01*
X0094557Y0067601D01*
X0094557Y0066734D01*
X0094123Y0066300D01*
X0093256Y0066300D01*
X0092822Y0066734D01*
X0094557Y0067601D02*
X0093690Y0068469D01*
X0092822Y0068902D01*
X0096636Y0068902D02*
X0096636Y0066300D01*
X0097503Y0066300D02*
X0095769Y0066300D01*
X0097503Y0068035D02*
X0096636Y0068902D01*
X0098715Y0068469D02*
X0098715Y0067601D01*
X0099149Y0067167D01*
X0100450Y0067167D01*
X0100450Y0066300D02*
X0100450Y0068902D01*
X0099149Y0068902D01*
X0098715Y0068469D01*
X0099583Y0067167D02*
X0098715Y0066300D01*
X0097681Y0063862D02*
X0095319Y0063862D01*
X0095319Y0059138D02*
X0097681Y0059138D01*
X0097503Y0073800D02*
X0095769Y0073800D01*
X0096636Y0073800D02*
X0096636Y0076402D01*
X0097503Y0075535D01*
X0098715Y0075969D02*
X0098715Y0075101D01*
X0099149Y0074667D01*
X0100450Y0074667D01*
X0100450Y0073800D02*
X0100450Y0076402D01*
X0099149Y0076402D01*
X0098715Y0075969D01*
X0099583Y0074667D02*
X0098715Y0073800D01*
X0094557Y0074234D02*
X0094123Y0073800D01*
X0093256Y0073800D01*
X0092822Y0074234D01*
X0092822Y0075101D01*
X0093256Y0075535D01*
X0093690Y0075535D01*
X0094557Y0075101D01*
X0094557Y0076402D01*
X0092822Y0076402D01*
X0095319Y0079138D02*
X0097681Y0079138D01*
X0097681Y0083862D02*
X0095319Y0083862D01*
X0054200Y0091300D02*
X0054200Y0093902D01*
X0052899Y0093902D01*
X0052465Y0093469D01*
X0052465Y0092601D01*
X0052899Y0092167D01*
X0054200Y0092167D01*
X0053333Y0092167D02*
X0052465Y0091300D01*
X0051253Y0092601D02*
X0049519Y0092601D01*
X0049952Y0091300D02*
X0049952Y0093902D01*
X0051253Y0092601D01*
X0050319Y0088862D02*
X0052681Y0088862D01*
X0052681Y0084138D02*
X0050319Y0084138D01*
X0056300Y0118800D02*
X0058902Y0118800D01*
X0058902Y0120101D01*
X0058469Y0120535D01*
X0057601Y0120535D01*
X0057167Y0120101D01*
X0057167Y0118800D01*
X0057167Y0119667D02*
X0056300Y0120535D01*
X0056300Y0121747D02*
X0056734Y0121747D01*
X0058469Y0123481D01*
X0058902Y0123481D01*
X0058902Y0121747D01*
X0053862Y0122681D02*
X0053862Y0120319D01*
X0049138Y0120319D02*
X0049138Y0122681D01*
X0092822Y0137601D02*
X0094557Y0137601D01*
X0093256Y0138902D01*
X0093256Y0136300D01*
X0095769Y0136300D02*
X0097503Y0136300D01*
X0096636Y0136300D02*
X0096636Y0138902D01*
X0097503Y0138035D01*
X0098715Y0138469D02*
X0098715Y0137601D01*
X0099149Y0137167D01*
X0100450Y0137167D01*
X0100450Y0136300D02*
X0100450Y0138902D01*
X0099149Y0138902D01*
X0098715Y0138469D01*
X0099583Y0137167D02*
X0098715Y0136300D01*
X0097681Y0133862D02*
X0095319Y0133862D01*
X0095319Y0129138D02*
X0097681Y0129138D01*
X0097503Y0143800D02*
X0095769Y0143800D01*
X0096636Y0143800D02*
X0096636Y0146402D01*
X0097503Y0145535D01*
X0098715Y0145969D02*
X0098715Y0145101D01*
X0099149Y0144667D01*
X0100450Y0144667D01*
X0100450Y0143800D02*
X0100450Y0146402D01*
X0099149Y0146402D01*
X0098715Y0145969D01*
X0099583Y0144667D02*
X0098715Y0143800D01*
X0094557Y0144234D02*
X0094123Y0143800D01*
X0093256Y0143800D01*
X0092822Y0144234D01*
X0092822Y0144667D01*
X0093256Y0145101D01*
X0093690Y0145101D01*
X0093256Y0145101D02*
X0092822Y0145535D01*
X0092822Y0145969D01*
X0093256Y0146402D01*
X0094123Y0146402D01*
X0094557Y0145969D01*
X0095319Y0149138D02*
X0097681Y0149138D01*
X0097681Y0153862D02*
X0095319Y0153862D01*
X0054200Y0161300D02*
X0054200Y0163902D01*
X0052899Y0163902D01*
X0052465Y0163469D01*
X0052465Y0162601D01*
X0052899Y0162167D01*
X0054200Y0162167D01*
X0053333Y0162167D02*
X0052465Y0161300D01*
X0051253Y0161734D02*
X0050820Y0161300D01*
X0049952Y0161300D01*
X0049519Y0161734D01*
X0049519Y0162167D01*
X0049952Y0162601D01*
X0050386Y0162601D01*
X0049952Y0162601D02*
X0049519Y0163035D01*
X0049519Y0163469D01*
X0049952Y0163902D01*
X0050820Y0163902D01*
X0051253Y0163469D01*
X0050319Y0158862D02*
X0052681Y0158862D01*
X0052681Y0154138D02*
X0050319Y0154138D01*
X0056300Y0188800D02*
X0058902Y0188800D01*
X0058902Y0190101D01*
X0058469Y0190535D01*
X0057601Y0190535D01*
X0057167Y0190101D01*
X0057167Y0188800D01*
X0057167Y0189667D02*
X0056300Y0190535D01*
X0056734Y0191747D02*
X0056300Y0192180D01*
X0056300Y0193048D01*
X0056734Y0193481D01*
X0057167Y0193481D01*
X0057601Y0193048D01*
X0057601Y0191747D01*
X0056734Y0191747D01*
X0057601Y0191747D02*
X0058469Y0192614D01*
X0058902Y0193481D01*
X0053862Y0192681D02*
X0053862Y0190319D01*
X0049138Y0190319D02*
X0049138Y0192681D01*
X0050319Y0224138D02*
X0052681Y0224138D01*
X0052681Y0228862D02*
X0050319Y0228862D01*
X0049519Y0231300D02*
X0051253Y0231300D01*
X0049519Y0233035D01*
X0049519Y0233469D01*
X0049952Y0233902D01*
X0050820Y0233902D01*
X0051253Y0233469D01*
X0052465Y0233469D02*
X0052465Y0232601D01*
X0052899Y0232167D01*
X0054200Y0232167D01*
X0054200Y0231300D02*
X0054200Y0233902D01*
X0052899Y0233902D01*
X0052465Y0233469D01*
X0053333Y0232167D02*
X0052465Y0231300D01*
X0093690Y0216402D02*
X0093690Y0213800D01*
X0094557Y0213800D02*
X0092822Y0213800D01*
X0094557Y0215535D02*
X0093690Y0216402D01*
X0096636Y0216402D02*
X0096636Y0213800D01*
X0097503Y0213800D02*
X0095769Y0213800D01*
X0097503Y0215535D02*
X0096636Y0216402D01*
X0098715Y0215969D02*
X0098715Y0215101D01*
X0099149Y0214667D01*
X0100450Y0214667D01*
X0100450Y0213800D02*
X0100450Y0216402D01*
X0099149Y0216402D01*
X0098715Y0215969D01*
X0099583Y0214667D02*
X0098715Y0213800D01*
X0099149Y0208902D02*
X0098715Y0208469D01*
X0098715Y0207601D01*
X0099149Y0207167D01*
X0100450Y0207167D01*
X0100450Y0206300D02*
X0100450Y0208902D01*
X0099149Y0208902D01*
X0099583Y0207167D02*
X0098715Y0206300D01*
X0097503Y0206300D02*
X0095769Y0206300D01*
X0096636Y0206300D02*
X0096636Y0208902D01*
X0097503Y0208035D01*
X0094557Y0208469D02*
X0094123Y0208902D01*
X0093256Y0208902D01*
X0092822Y0208469D01*
X0092822Y0208035D01*
X0094557Y0206300D01*
X0092822Y0206300D01*
X0095319Y0203862D02*
X0097681Y0203862D01*
X0097681Y0199138D02*
X0095319Y0199138D01*
X0095319Y0219138D02*
X0097681Y0219138D01*
X0097681Y0223862D02*
X0095319Y0223862D01*
X0058902Y0258800D02*
X0058902Y0260101D01*
X0058469Y0260535D01*
X0057601Y0260535D01*
X0057167Y0260101D01*
X0057167Y0258800D01*
X0056300Y0258800D02*
X0058902Y0258800D01*
X0057167Y0259667D02*
X0056300Y0260535D01*
X0056734Y0261747D02*
X0056300Y0262180D01*
X0056300Y0263048D01*
X0056734Y0263481D01*
X0057601Y0263481D01*
X0058035Y0263048D01*
X0058035Y0262614D01*
X0057601Y0261747D01*
X0058902Y0261747D01*
X0058902Y0263481D01*
X0053862Y0262681D02*
X0053862Y0260319D01*
X0049138Y0260319D02*
X0049138Y0262681D01*
X0092822Y0276734D02*
X0093256Y0276300D01*
X0094123Y0276300D01*
X0094557Y0276734D01*
X0092822Y0278469D01*
X0092822Y0276734D01*
X0092822Y0278469D02*
X0093256Y0278902D01*
X0094123Y0278902D01*
X0094557Y0278469D01*
X0094557Y0276734D01*
X0095769Y0276300D02*
X0097503Y0276300D01*
X0096636Y0276300D02*
X0096636Y0278902D01*
X0097503Y0278035D01*
X0098715Y0278469D02*
X0098715Y0277601D01*
X0099149Y0277167D01*
X0100450Y0277167D01*
X0100450Y0276300D02*
X0100450Y0278902D01*
X0099149Y0278902D01*
X0098715Y0278469D01*
X0099583Y0277167D02*
X0098715Y0276300D01*
X0097681Y0273862D02*
X0095319Y0273862D01*
X0095319Y0269138D02*
X0097681Y0269138D01*
X0097070Y0283800D02*
X0096202Y0283800D01*
X0095769Y0284234D01*
X0095769Y0285969D01*
X0096202Y0286402D01*
X0097070Y0286402D01*
X0097503Y0285969D01*
X0097503Y0285535D01*
X0097070Y0285101D01*
X0095769Y0285101D01*
X0097070Y0283800D02*
X0097503Y0284234D01*
X0098715Y0283800D02*
X0099583Y0284667D01*
X0099149Y0284667D02*
X0100450Y0284667D01*
X0100450Y0283800D02*
X0100450Y0286402D01*
X0099149Y0286402D01*
X0098715Y0285969D01*
X0098715Y0285101D01*
X0099149Y0284667D01*
X0097681Y0289138D02*
X0095319Y0289138D01*
X0095319Y0293862D02*
X0097681Y0293862D01*
X0054200Y0301300D02*
X0054200Y0303902D01*
X0052899Y0303902D01*
X0052465Y0303469D01*
X0052465Y0302601D01*
X0052899Y0302167D01*
X0054200Y0302167D01*
X0053333Y0302167D02*
X0052465Y0301300D01*
X0051253Y0301300D02*
X0049519Y0301300D01*
X0050386Y0301300D02*
X0050386Y0303902D01*
X0051253Y0303035D01*
X0050319Y0298862D02*
X0052681Y0298862D01*
X0052681Y0294138D02*
X0050319Y0294138D01*
X0038040Y0301600D02*
X0038040Y0304202D01*
X0036738Y0304202D01*
X0036305Y0303769D01*
X0036305Y0302901D01*
X0036738Y0302467D01*
X0038040Y0302467D01*
X0037172Y0302467D02*
X0036305Y0301600D01*
X0035093Y0302034D02*
X0034659Y0301600D01*
X0033792Y0301600D01*
X0033358Y0302034D01*
X0033358Y0302901D01*
X0033792Y0303335D01*
X0034226Y0303335D01*
X0035093Y0302901D01*
X0035093Y0304202D01*
X0033358Y0304202D01*
X0032147Y0302901D02*
X0030412Y0302901D01*
X0030845Y0301600D02*
X0030845Y0304202D01*
X0032147Y0302901D01*
X0028040Y0302467D02*
X0026738Y0302467D01*
X0026305Y0302901D01*
X0026305Y0303769D01*
X0026738Y0304202D01*
X0028040Y0304202D01*
X0028040Y0301600D01*
X0027172Y0302467D02*
X0026305Y0301600D01*
X0025093Y0302034D02*
X0024659Y0301600D01*
X0023792Y0301600D01*
X0023358Y0302034D01*
X0023358Y0302901D01*
X0023792Y0303335D01*
X0024226Y0303335D01*
X0025093Y0302901D01*
X0025093Y0304202D01*
X0023358Y0304202D01*
X0022147Y0303769D02*
X0021713Y0304202D01*
X0020845Y0304202D01*
X0020412Y0303769D01*
X0020412Y0303335D01*
X0020845Y0302901D01*
X0020412Y0302467D01*
X0020412Y0302034D01*
X0020845Y0301600D01*
X0021713Y0301600D01*
X0022147Y0302034D01*
X0021279Y0302901D02*
X0020845Y0302901D01*
X0022888Y0310319D02*
X0022888Y0312681D01*
X0027612Y0312681D02*
X0027612Y0310319D01*
X0030388Y0310319D02*
X0030388Y0312681D01*
X0035112Y0312681D02*
X0035112Y0310319D01*
X0154412Y0270350D02*
X0156147Y0270350D01*
X0155279Y0270350D02*
X0155279Y0272952D01*
X0156147Y0272085D01*
X0157358Y0272519D02*
X0157792Y0272952D01*
X0158659Y0272952D01*
X0159093Y0272519D01*
X0159093Y0270784D01*
X0158659Y0270350D01*
X0157792Y0270350D01*
X0157358Y0270784D01*
X0157681Y0274138D02*
X0155319Y0274138D01*
X0155319Y0278862D02*
X0157681Y0278862D01*
X0182822Y0288469D02*
X0184557Y0286734D01*
X0184557Y0286300D01*
X0185769Y0286300D02*
X0187503Y0286300D01*
X0186636Y0286300D02*
X0186636Y0288902D01*
X0187503Y0288035D01*
X0188715Y0288469D02*
X0188715Y0287601D01*
X0189149Y0287167D01*
X0190450Y0287167D01*
X0190450Y0286300D02*
X0190450Y0288902D01*
X0189149Y0288902D01*
X0188715Y0288469D01*
X0189583Y0287167D02*
X0188715Y0286300D01*
X0187681Y0283862D02*
X0185319Y0283862D01*
X0184557Y0288902D02*
X0182822Y0288902D01*
X0182822Y0288469D01*
X0185319Y0279138D02*
X0187681Y0279138D01*
X0227822Y0278469D02*
X0228256Y0278902D01*
X0229123Y0278902D01*
X0229557Y0278469D01*
X0230769Y0278469D02*
X0231202Y0278902D01*
X0232070Y0278902D01*
X0232503Y0278469D01*
X0233715Y0278469D02*
X0233715Y0277601D01*
X0234149Y0277167D01*
X0235450Y0277167D01*
X0235450Y0276300D02*
X0235450Y0278902D01*
X0234149Y0278902D01*
X0233715Y0278469D01*
X0234583Y0277167D02*
X0233715Y0276300D01*
X0232503Y0276300D02*
X0230769Y0278035D01*
X0230769Y0278469D01*
X0230769Y0276300D02*
X0232503Y0276300D01*
X0232681Y0273862D02*
X0230319Y0273862D01*
X0229557Y0276300D02*
X0227822Y0278035D01*
X0227822Y0278469D01*
X0227822Y0276300D02*
X0229557Y0276300D01*
X0230319Y0269138D02*
X0232681Y0269138D01*
X0232503Y0283800D02*
X0230769Y0285535D01*
X0230769Y0285969D01*
X0231202Y0286402D01*
X0232070Y0286402D01*
X0232503Y0285969D01*
X0233715Y0285969D02*
X0233715Y0285101D01*
X0234149Y0284667D01*
X0235450Y0284667D01*
X0235450Y0283800D02*
X0235450Y0286402D01*
X0234149Y0286402D01*
X0233715Y0285969D01*
X0234583Y0284667D02*
X0233715Y0283800D01*
X0232503Y0283800D02*
X0230769Y0283800D01*
X0229557Y0283800D02*
X0227822Y0283800D01*
X0228690Y0283800D02*
X0228690Y0286402D01*
X0229557Y0285535D01*
X0230319Y0289138D02*
X0232681Y0289138D01*
X0232681Y0293862D02*
X0230319Y0293862D01*
X0246600Y0318460D02*
X0249202Y0318460D01*
X0249202Y0319762D01*
X0248769Y0320195D01*
X0247901Y0320195D01*
X0247467Y0319762D01*
X0247467Y0318460D01*
X0247467Y0319328D02*
X0246600Y0320195D01*
X0247034Y0321407D02*
X0246600Y0321841D01*
X0246600Y0322708D01*
X0247034Y0323142D01*
X0247901Y0323142D01*
X0248335Y0322708D01*
X0248335Y0322274D01*
X0247901Y0321407D01*
X0249202Y0321407D01*
X0249202Y0323142D01*
X0247901Y0324353D02*
X0247901Y0325655D01*
X0247467Y0326088D01*
X0247034Y0326088D01*
X0246600Y0325655D01*
X0246600Y0324787D01*
X0247034Y0324353D01*
X0247901Y0324353D01*
X0248769Y0325221D01*
X0249202Y0326088D01*
X0251638Y0323931D02*
X0251638Y0321569D01*
X0256362Y0321569D02*
X0256362Y0323931D01*
X0250152Y0331300D02*
X0247550Y0331300D01*
X0248417Y0331300D02*
X0248417Y0332601D01*
X0248851Y0333035D01*
X0249719Y0333035D01*
X0250152Y0332601D01*
X0250152Y0331300D01*
X0248417Y0332167D02*
X0247550Y0333035D01*
X0247984Y0334247D02*
X0247550Y0334680D01*
X0247550Y0335548D01*
X0247984Y0335981D01*
X0248851Y0335981D01*
X0249285Y0335548D01*
X0249285Y0335114D01*
X0248851Y0334247D01*
X0250152Y0334247D01*
X0250152Y0335981D01*
X0250152Y0337193D02*
X0248851Y0337193D01*
X0249285Y0338060D01*
X0249285Y0338494D01*
X0248851Y0338928D01*
X0247984Y0338928D01*
X0247550Y0338494D01*
X0247550Y0337627D01*
X0247984Y0337193D01*
X0250152Y0337193D02*
X0250152Y0338928D01*
X0251638Y0336431D02*
X0251638Y0334069D01*
X0256362Y0334069D02*
X0256362Y0336431D01*
X0256542Y0339100D02*
X0257409Y0339100D01*
X0257843Y0339534D01*
X0257843Y0340401D02*
X0256976Y0340835D01*
X0256542Y0340835D01*
X0256108Y0340401D01*
X0256108Y0339534D01*
X0256542Y0339100D01*
X0254897Y0339100D02*
X0254897Y0339534D01*
X0253162Y0341269D01*
X0253162Y0341702D01*
X0254897Y0341702D01*
X0256108Y0341702D02*
X0257843Y0341702D01*
X0257843Y0340401D01*
X0259055Y0340401D02*
X0259488Y0339967D01*
X0260790Y0339967D01*
X0260790Y0339100D02*
X0260790Y0341702D01*
X0259488Y0341702D01*
X0259055Y0341269D01*
X0259055Y0340401D01*
X0259922Y0339967D02*
X0259055Y0339100D01*
X0257681Y0344138D02*
X0255319Y0344138D01*
X0255319Y0348862D02*
X0257681Y0348862D01*
X0317822Y0288469D02*
X0318256Y0288902D01*
X0319123Y0288902D01*
X0319557Y0288469D01*
X0319557Y0288035D01*
X0319123Y0287601D01*
X0317822Y0287601D01*
X0317822Y0286734D02*
X0317822Y0288469D01*
X0317822Y0286734D02*
X0318256Y0286300D01*
X0319123Y0286300D01*
X0319557Y0286734D01*
X0320769Y0286300D02*
X0322503Y0286300D01*
X0320769Y0288035D01*
X0320769Y0288469D01*
X0321202Y0288902D01*
X0322070Y0288902D01*
X0322503Y0288469D01*
X0323715Y0288469D02*
X0323715Y0287601D01*
X0324149Y0287167D01*
X0325450Y0287167D01*
X0325450Y0286300D02*
X0325450Y0288902D01*
X0324149Y0288902D01*
X0323715Y0288469D01*
X0324583Y0287167D02*
X0323715Y0286300D01*
X0322681Y0283862D02*
X0320319Y0283862D01*
X0320319Y0279138D02*
X0322681Y0279138D01*
X0294093Y0272519D02*
X0294093Y0270784D01*
X0293659Y0270350D01*
X0292792Y0270350D01*
X0292358Y0270784D01*
X0291147Y0270784D02*
X0290713Y0270350D01*
X0289845Y0270350D01*
X0289412Y0270784D01*
X0289412Y0271651D01*
X0289845Y0272085D01*
X0290279Y0272085D01*
X0291147Y0271651D01*
X0291147Y0272952D01*
X0289412Y0272952D01*
X0290319Y0274138D02*
X0292681Y0274138D01*
X0292792Y0272952D02*
X0293659Y0272952D01*
X0294093Y0272519D01*
X0292792Y0272952D02*
X0292358Y0272519D01*
X0292681Y0278862D02*
X0290319Y0278862D01*
X0362822Y0277601D02*
X0364557Y0277601D01*
X0363256Y0278902D01*
X0363256Y0276300D01*
X0365769Y0276734D02*
X0366202Y0276300D01*
X0367070Y0276300D01*
X0367503Y0276734D01*
X0366636Y0277601D02*
X0366202Y0277601D01*
X0365769Y0277167D01*
X0365769Y0276734D01*
X0366202Y0277601D02*
X0365769Y0278035D01*
X0365769Y0278469D01*
X0366202Y0278902D01*
X0367070Y0278902D01*
X0367503Y0278469D01*
X0368715Y0278469D02*
X0368715Y0277601D01*
X0369149Y0277167D01*
X0370450Y0277167D01*
X0370450Y0276300D02*
X0370450Y0278902D01*
X0369149Y0278902D01*
X0368715Y0278469D01*
X0369583Y0277167D02*
X0368715Y0276300D01*
X0367681Y0273862D02*
X0365319Y0273862D01*
X0365319Y0269138D02*
X0367681Y0269138D01*
X0367070Y0283800D02*
X0367503Y0284234D01*
X0367070Y0283800D02*
X0366202Y0283800D01*
X0365769Y0284234D01*
X0365769Y0284667D01*
X0366202Y0285101D01*
X0366636Y0285101D01*
X0366202Y0285101D02*
X0365769Y0285535D01*
X0365769Y0285969D01*
X0366202Y0286402D01*
X0367070Y0286402D01*
X0367503Y0285969D01*
X0368715Y0285969D02*
X0368715Y0285101D01*
X0369149Y0284667D01*
X0370450Y0284667D01*
X0370450Y0283800D02*
X0370450Y0286402D01*
X0369149Y0286402D01*
X0368715Y0285969D01*
X0369583Y0284667D02*
X0368715Y0283800D01*
X0364557Y0284234D02*
X0364123Y0283800D01*
X0363256Y0283800D01*
X0362822Y0284234D01*
X0362822Y0284667D01*
X0363256Y0285101D01*
X0363690Y0285101D01*
X0363256Y0285101D02*
X0362822Y0285535D01*
X0362822Y0285969D01*
X0363256Y0286402D01*
X0364123Y0286402D01*
X0364557Y0285969D01*
X0365319Y0289138D02*
X0367681Y0289138D01*
X0367681Y0293862D02*
X0365319Y0293862D01*
X0425319Y0278862D02*
X0427681Y0278862D01*
X0427681Y0274138D02*
X0425319Y0274138D01*
X0425713Y0272952D02*
X0426147Y0272519D01*
X0426147Y0272085D01*
X0425713Y0271651D01*
X0424412Y0271651D01*
X0424412Y0270784D02*
X0424412Y0272519D01*
X0424845Y0272952D01*
X0425713Y0272952D01*
X0427358Y0272519D02*
X0427792Y0272952D01*
X0428659Y0272952D01*
X0429093Y0272519D01*
X0429093Y0270784D01*
X0428659Y0270350D01*
X0427792Y0270350D01*
X0427358Y0270784D01*
X0426147Y0270784D02*
X0425713Y0270350D01*
X0424845Y0270350D01*
X0424412Y0270784D01*
X0452822Y0286734D02*
X0452822Y0288469D01*
X0453256Y0288902D01*
X0454123Y0288902D01*
X0454557Y0288469D01*
X0454557Y0288035D01*
X0454123Y0287601D01*
X0452822Y0287601D01*
X0452822Y0286734D02*
X0453256Y0286300D01*
X0454123Y0286300D01*
X0454557Y0286734D01*
X0455769Y0286734D02*
X0456202Y0286300D01*
X0457070Y0286300D01*
X0457503Y0286734D01*
X0456636Y0287601D02*
X0456202Y0287601D01*
X0455769Y0287167D01*
X0455769Y0286734D01*
X0456202Y0287601D02*
X0455769Y0288035D01*
X0455769Y0288469D01*
X0456202Y0288902D01*
X0457070Y0288902D01*
X0457503Y0288469D01*
X0458715Y0288469D02*
X0458715Y0287601D01*
X0459149Y0287167D01*
X0460450Y0287167D01*
X0460450Y0286300D02*
X0460450Y0288902D01*
X0459149Y0288902D01*
X0458715Y0288469D01*
X0459583Y0287167D02*
X0458715Y0286300D01*
X0457681Y0283862D02*
X0455319Y0283862D01*
X0455319Y0279138D02*
X0457681Y0279138D01*
X0482822Y0273469D02*
X0482822Y0273035D01*
X0483256Y0272601D01*
X0482822Y0272167D01*
X0482822Y0271734D01*
X0483256Y0271300D01*
X0484123Y0271300D01*
X0484557Y0271734D01*
X0483690Y0272601D02*
X0483256Y0272601D01*
X0482822Y0273469D02*
X0483256Y0273902D01*
X0484123Y0273902D01*
X0484557Y0273469D01*
X0485769Y0272601D02*
X0487503Y0272601D01*
X0486202Y0273902D01*
X0486202Y0271300D01*
X0488715Y0271300D02*
X0489583Y0272167D01*
X0489149Y0272167D02*
X0490450Y0272167D01*
X0490450Y0271300D02*
X0490450Y0273902D01*
X0489149Y0273902D01*
X0488715Y0273469D01*
X0488715Y0272601D01*
X0489149Y0272167D01*
X0487681Y0268862D02*
X0485319Y0268862D01*
X0485319Y0264138D02*
X0487681Y0264138D01*
X0522822Y0248469D02*
X0522822Y0246734D01*
X0523256Y0246300D01*
X0524123Y0246300D01*
X0524557Y0246734D01*
X0524123Y0247601D02*
X0522822Y0247601D01*
X0522822Y0248469D02*
X0523256Y0248902D01*
X0524123Y0248902D01*
X0524557Y0248469D01*
X0524557Y0248035D01*
X0524123Y0247601D01*
X0525769Y0247601D02*
X0527503Y0247601D01*
X0526202Y0248902D01*
X0526202Y0246300D01*
X0528715Y0246300D02*
X0529583Y0247167D01*
X0529149Y0247167D02*
X0530450Y0247167D01*
X0530450Y0246300D02*
X0530450Y0248902D01*
X0529149Y0248902D01*
X0528715Y0248469D01*
X0528715Y0247601D01*
X0529149Y0247167D01*
X0527681Y0243862D02*
X0525319Y0243862D01*
X0525319Y0239138D02*
X0527681Y0239138D01*
X0490450Y0228902D02*
X0490450Y0226300D01*
X0490450Y0227167D02*
X0489149Y0227167D01*
X0488715Y0227601D01*
X0488715Y0228469D01*
X0489149Y0228902D01*
X0490450Y0228902D01*
X0489583Y0227167D02*
X0488715Y0226300D01*
X0487503Y0227601D02*
X0485769Y0227601D01*
X0484557Y0227601D02*
X0482822Y0227601D01*
X0483256Y0226300D02*
X0483256Y0228902D01*
X0484557Y0227601D01*
X0486202Y0226300D02*
X0486202Y0228902D01*
X0487503Y0227601D01*
X0487681Y0223862D02*
X0485319Y0223862D01*
X0485319Y0219138D02*
X0487681Y0219138D01*
X0460450Y0218902D02*
X0460450Y0216300D01*
X0460450Y0217167D02*
X0459149Y0217167D01*
X0458715Y0217601D01*
X0458715Y0218469D01*
X0459149Y0218902D01*
X0460450Y0218902D01*
X0459583Y0217167D02*
X0458715Y0216300D01*
X0457503Y0217601D02*
X0455769Y0217601D01*
X0456202Y0216300D02*
X0456202Y0218902D01*
X0457503Y0217601D01*
X0454557Y0216734D02*
X0452822Y0218469D01*
X0452822Y0216734D01*
X0453256Y0216300D01*
X0454123Y0216300D01*
X0454557Y0216734D01*
X0454557Y0218469D01*
X0454123Y0218902D01*
X0453256Y0218902D01*
X0452822Y0218469D01*
X0455319Y0213862D02*
X0457681Y0213862D01*
X0457681Y0209138D02*
X0455319Y0209138D01*
X0431040Y0202519D02*
X0431040Y0200784D01*
X0430606Y0200350D01*
X0429738Y0200350D01*
X0429305Y0200784D01*
X0428093Y0200350D02*
X0426358Y0200350D01*
X0427226Y0200350D02*
X0427226Y0202952D01*
X0428093Y0202085D01*
X0429305Y0202519D02*
X0429738Y0202952D01*
X0430606Y0202952D01*
X0431040Y0202519D01*
X0427931Y0204138D02*
X0425569Y0204138D01*
X0424713Y0202952D02*
X0423845Y0202952D01*
X0423412Y0202519D01*
X0425147Y0200784D01*
X0424713Y0200350D01*
X0423845Y0200350D01*
X0423412Y0200784D01*
X0423412Y0202519D01*
X0424713Y0202952D02*
X0425147Y0202519D01*
X0425147Y0200784D01*
X0425569Y0208862D02*
X0427931Y0208862D01*
X0482822Y0183902D02*
X0484557Y0183902D01*
X0484557Y0182601D01*
X0483690Y0183035D01*
X0483256Y0183035D01*
X0482822Y0182601D01*
X0482822Y0181734D01*
X0483256Y0181300D01*
X0484123Y0181300D01*
X0484557Y0181734D01*
X0485769Y0182601D02*
X0487503Y0182601D01*
X0486202Y0183902D01*
X0486202Y0181300D01*
X0488715Y0181300D02*
X0489583Y0182167D01*
X0489149Y0182167D02*
X0490450Y0182167D01*
X0490450Y0181300D02*
X0490450Y0183902D01*
X0489149Y0183902D01*
X0488715Y0183469D01*
X0488715Y0182601D01*
X0489149Y0182167D01*
X0487681Y0178862D02*
X0485319Y0178862D01*
X0485319Y0174138D02*
X0487681Y0174138D01*
X0460450Y0148902D02*
X0459149Y0148902D01*
X0458715Y0148469D01*
X0458715Y0147601D01*
X0459149Y0147167D01*
X0460450Y0147167D01*
X0460450Y0146300D02*
X0460450Y0148902D01*
X0459583Y0147167D02*
X0458715Y0146300D01*
X0457503Y0147601D02*
X0455769Y0147601D01*
X0454557Y0148035D02*
X0453690Y0148902D01*
X0453690Y0146300D01*
X0454557Y0146300D02*
X0452822Y0146300D01*
X0456202Y0146300D02*
X0456202Y0148902D01*
X0457503Y0147601D01*
X0457681Y0143862D02*
X0455319Y0143862D01*
X0455319Y0139138D02*
X0457681Y0139138D01*
X0482822Y0138902D02*
X0483690Y0138469D01*
X0484557Y0137601D01*
X0483256Y0137601D01*
X0482822Y0137167D01*
X0482822Y0136734D01*
X0483256Y0136300D01*
X0484123Y0136300D01*
X0484557Y0136734D01*
X0484557Y0137601D01*
X0485769Y0137601D02*
X0487503Y0137601D01*
X0486202Y0138902D01*
X0486202Y0136300D01*
X0488715Y0136300D02*
X0489583Y0137167D01*
X0489149Y0137167D02*
X0490450Y0137167D01*
X0490450Y0136300D02*
X0490450Y0138902D01*
X0489149Y0138902D01*
X0488715Y0138469D01*
X0488715Y0137601D01*
X0489149Y0137167D01*
X0487681Y0133862D02*
X0485319Y0133862D01*
X0485319Y0129138D02*
X0487681Y0129138D01*
X0522822Y0113469D02*
X0523256Y0113902D01*
X0524123Y0113902D01*
X0524557Y0113469D01*
X0525769Y0113902D02*
X0527503Y0113902D01*
X0527503Y0112601D01*
X0526636Y0113035D01*
X0526202Y0113035D01*
X0525769Y0112601D01*
X0525769Y0111734D01*
X0526202Y0111300D01*
X0527070Y0111300D01*
X0527503Y0111734D01*
X0528715Y0111300D02*
X0529583Y0112167D01*
X0529149Y0112167D02*
X0530450Y0112167D01*
X0530450Y0111300D02*
X0530450Y0113902D01*
X0529149Y0113902D01*
X0528715Y0113469D01*
X0528715Y0112601D01*
X0529149Y0112167D01*
X0527681Y0108862D02*
X0525319Y0108862D01*
X0524557Y0111300D02*
X0522822Y0113035D01*
X0522822Y0113469D01*
X0522822Y0111300D02*
X0524557Y0111300D01*
X0525319Y0104138D02*
X0527681Y0104138D01*
X0490450Y0093902D02*
X0489149Y0093902D01*
X0488715Y0093469D01*
X0488715Y0092601D01*
X0489149Y0092167D01*
X0490450Y0092167D01*
X0490450Y0091300D02*
X0490450Y0093902D01*
X0489583Y0092167D02*
X0488715Y0091300D01*
X0487503Y0092601D02*
X0485769Y0092601D01*
X0486202Y0091300D02*
X0486202Y0093902D01*
X0487503Y0092601D01*
X0484557Y0091734D02*
X0484557Y0091300D01*
X0484557Y0091734D02*
X0482822Y0093469D01*
X0482822Y0093902D01*
X0484557Y0093902D01*
X0485319Y0088862D02*
X0487681Y0088862D01*
X0487681Y0084138D02*
X0485319Y0084138D01*
X0460450Y0078902D02*
X0459149Y0078902D01*
X0458715Y0078469D01*
X0458715Y0077601D01*
X0459149Y0077167D01*
X0460450Y0077167D01*
X0460450Y0076300D02*
X0460450Y0078902D01*
X0459583Y0077167D02*
X0458715Y0076300D01*
X0457503Y0077601D02*
X0455769Y0077601D01*
X0456202Y0076300D02*
X0456202Y0078902D01*
X0457503Y0077601D01*
X0454557Y0078469D02*
X0454123Y0078902D01*
X0453256Y0078902D01*
X0452822Y0078469D01*
X0452822Y0078035D01*
X0454557Y0076300D01*
X0452822Y0076300D01*
X0455319Y0073862D02*
X0457681Y0073862D01*
X0457681Y0069138D02*
X0455319Y0069138D01*
X0430790Y0062519D02*
X0430790Y0060784D01*
X0430356Y0060350D01*
X0429488Y0060350D01*
X0429055Y0060784D01*
X0427843Y0060350D02*
X0426108Y0060350D01*
X0426976Y0060350D02*
X0426976Y0062952D01*
X0427843Y0062085D01*
X0429055Y0062519D02*
X0429488Y0062952D01*
X0430356Y0062952D01*
X0430790Y0062519D01*
X0427681Y0064138D02*
X0425319Y0064138D01*
X0424463Y0062952D02*
X0424897Y0062519D01*
X0424463Y0062952D02*
X0423595Y0062952D01*
X0423162Y0062519D01*
X0423162Y0062085D01*
X0424897Y0060350D01*
X0423162Y0060350D01*
X0425319Y0068862D02*
X0427681Y0068862D01*
X0370450Y0086300D02*
X0370450Y0088902D01*
X0369149Y0088902D01*
X0368715Y0088469D01*
X0368715Y0087601D01*
X0369149Y0087167D01*
X0370450Y0087167D01*
X0369583Y0087167D02*
X0368715Y0086300D01*
X0367503Y0086734D02*
X0367070Y0086300D01*
X0366202Y0086300D01*
X0365769Y0086734D01*
X0365769Y0087167D01*
X0366202Y0087601D01*
X0366636Y0087601D01*
X0366202Y0087601D02*
X0365769Y0088035D01*
X0365769Y0088469D01*
X0366202Y0088902D01*
X0367070Y0088902D01*
X0367503Y0088469D01*
X0364557Y0088469D02*
X0364557Y0088035D01*
X0364123Y0087601D01*
X0363256Y0087601D01*
X0362822Y0087167D01*
X0362822Y0086734D01*
X0363256Y0086300D01*
X0364123Y0086300D01*
X0364557Y0086734D01*
X0364557Y0087167D01*
X0364123Y0087601D01*
X0363256Y0087601D02*
X0362822Y0088035D01*
X0362822Y0088469D01*
X0363256Y0088902D01*
X0364123Y0088902D01*
X0364557Y0088469D01*
X0365319Y0083862D02*
X0367681Y0083862D01*
X0367681Y0079138D02*
X0365319Y0079138D01*
X0325450Y0078902D02*
X0324149Y0078902D01*
X0323715Y0078469D01*
X0323715Y0077601D01*
X0324149Y0077167D01*
X0325450Y0077167D01*
X0325450Y0076300D02*
X0325450Y0078902D01*
X0324583Y0077167D02*
X0323715Y0076300D01*
X0322503Y0076734D02*
X0322070Y0076300D01*
X0321202Y0076300D01*
X0320769Y0076734D01*
X0320769Y0077167D01*
X0321202Y0077601D01*
X0321636Y0077601D01*
X0321202Y0077601D02*
X0320769Y0078035D01*
X0320769Y0078469D01*
X0321202Y0078902D01*
X0322070Y0078902D01*
X0322503Y0078469D01*
X0319557Y0078469D02*
X0319123Y0078902D01*
X0318256Y0078902D01*
X0317822Y0078469D01*
X0317822Y0078035D01*
X0319557Y0076300D01*
X0317822Y0076300D01*
X0320319Y0073862D02*
X0322681Y0073862D01*
X0322681Y0069138D02*
X0320319Y0069138D01*
X0294093Y0062519D02*
X0294093Y0060784D01*
X0293659Y0060350D01*
X0292792Y0060350D01*
X0292358Y0060784D01*
X0291147Y0060784D02*
X0291147Y0061217D01*
X0290713Y0061651D01*
X0289845Y0061651D01*
X0289412Y0061217D01*
X0289412Y0060784D01*
X0289845Y0060350D01*
X0290713Y0060350D01*
X0291147Y0060784D01*
X0290713Y0061651D02*
X0291147Y0062085D01*
X0291147Y0062519D01*
X0290713Y0062952D01*
X0289845Y0062952D01*
X0289412Y0062519D01*
X0289412Y0062085D01*
X0289845Y0061651D01*
X0290319Y0064138D02*
X0292681Y0064138D01*
X0292792Y0062952D02*
X0293659Y0062952D01*
X0294093Y0062519D01*
X0292792Y0062952D02*
X0292358Y0062519D01*
X0292681Y0068862D02*
X0290319Y0068862D01*
X0235450Y0068902D02*
X0234149Y0068902D01*
X0233715Y0068469D01*
X0233715Y0067601D01*
X0234149Y0067167D01*
X0235450Y0067167D01*
X0235450Y0066300D02*
X0235450Y0068902D01*
X0234583Y0067167D02*
X0233715Y0066300D01*
X0232503Y0066300D02*
X0230769Y0068035D01*
X0230769Y0068469D01*
X0231202Y0068902D01*
X0232070Y0068902D01*
X0232503Y0068469D01*
X0232503Y0066300D02*
X0230769Y0066300D01*
X0229557Y0066734D02*
X0229557Y0067167D01*
X0229123Y0067601D01*
X0228256Y0067601D01*
X0227822Y0067167D01*
X0227822Y0066734D01*
X0228256Y0066300D01*
X0229123Y0066300D01*
X0229557Y0066734D01*
X0229123Y0067601D02*
X0229557Y0068035D01*
X0229557Y0068469D01*
X0229123Y0068902D01*
X0228256Y0068902D01*
X0227822Y0068469D01*
X0227822Y0068035D01*
X0228256Y0067601D01*
X0230319Y0063862D02*
X0232681Y0063862D01*
X0232681Y0059138D02*
X0230319Y0059138D01*
X0230769Y0073800D02*
X0232503Y0073800D01*
X0230769Y0075535D01*
X0230769Y0075969D01*
X0231202Y0076402D01*
X0232070Y0076402D01*
X0232503Y0075969D01*
X0233715Y0075969D02*
X0233715Y0075101D01*
X0234149Y0074667D01*
X0235450Y0074667D01*
X0235450Y0073800D02*
X0235450Y0076402D01*
X0234149Y0076402D01*
X0233715Y0075969D01*
X0234583Y0074667D02*
X0233715Y0073800D01*
X0229557Y0073800D02*
X0229557Y0074234D01*
X0227822Y0075969D01*
X0227822Y0076402D01*
X0229557Y0076402D01*
X0230319Y0079138D02*
X0232681Y0079138D01*
X0232681Y0083862D02*
X0230319Y0083862D01*
X0190450Y0078902D02*
X0189149Y0078902D01*
X0188715Y0078469D01*
X0188715Y0077601D01*
X0189149Y0077167D01*
X0190450Y0077167D01*
X0190450Y0076300D02*
X0190450Y0078902D01*
X0189583Y0077167D02*
X0188715Y0076300D01*
X0187503Y0076300D02*
X0185769Y0078035D01*
X0185769Y0078469D01*
X0186202Y0078902D01*
X0187070Y0078902D01*
X0187503Y0078469D01*
X0187503Y0076300D02*
X0185769Y0076300D01*
X0184557Y0076734D02*
X0182822Y0078469D01*
X0182822Y0076734D01*
X0183256Y0076300D01*
X0184123Y0076300D01*
X0184557Y0076734D01*
X0184557Y0078469D01*
X0184123Y0078902D01*
X0183256Y0078902D01*
X0182822Y0078469D01*
X0185319Y0073862D02*
X0187681Y0073862D01*
X0187681Y0069138D02*
X0185319Y0069138D01*
X0159093Y0062519D02*
X0159093Y0060784D01*
X0158659Y0060350D01*
X0157792Y0060350D01*
X0157358Y0060784D01*
X0156147Y0061651D02*
X0154412Y0061651D01*
X0154845Y0060350D02*
X0154845Y0062952D01*
X0156147Y0061651D01*
X0157358Y0062519D02*
X0157792Y0062952D01*
X0158659Y0062952D01*
X0159093Y0062519D01*
X0157681Y0064138D02*
X0155319Y0064138D01*
X0155319Y0068862D02*
X0157681Y0068862D01*
X0157792Y0130350D02*
X0157358Y0130784D01*
X0157792Y0130350D02*
X0158659Y0130350D01*
X0159093Y0130784D01*
X0159093Y0132519D01*
X0158659Y0132952D01*
X0157792Y0132952D01*
X0157358Y0132519D01*
X0156147Y0132519D02*
X0155713Y0132952D01*
X0154845Y0132952D01*
X0154412Y0132519D01*
X0154412Y0132085D01*
X0154845Y0131651D01*
X0154412Y0131217D01*
X0154412Y0130784D01*
X0154845Y0130350D01*
X0155713Y0130350D01*
X0156147Y0130784D01*
X0155279Y0131651D02*
X0154845Y0131651D01*
X0155319Y0134138D02*
X0157681Y0134138D01*
X0157681Y0138862D02*
X0155319Y0138862D01*
X0182822Y0146734D02*
X0182822Y0148469D01*
X0183256Y0148902D01*
X0184123Y0148902D01*
X0184557Y0148469D01*
X0184557Y0148035D01*
X0184123Y0147601D01*
X0182822Y0147601D01*
X0182822Y0146734D02*
X0183256Y0146300D01*
X0184123Y0146300D01*
X0184557Y0146734D01*
X0185769Y0146300D02*
X0187503Y0146300D01*
X0186636Y0146300D02*
X0186636Y0148902D01*
X0187503Y0148035D01*
X0188715Y0148469D02*
X0189149Y0148902D01*
X0190450Y0148902D01*
X0190450Y0146300D01*
X0190450Y0147167D02*
X0189149Y0147167D01*
X0188715Y0147601D01*
X0188715Y0148469D01*
X0189583Y0147167D02*
X0188715Y0146300D01*
X0187681Y0143862D02*
X0185319Y0143862D01*
X0185319Y0139138D02*
X0187681Y0139138D01*
X0227822Y0138902D02*
X0228690Y0138469D01*
X0229557Y0137601D01*
X0228256Y0137601D01*
X0227822Y0137167D01*
X0227822Y0136734D01*
X0228256Y0136300D01*
X0229123Y0136300D01*
X0229557Y0136734D01*
X0229557Y0137601D01*
X0230769Y0138035D02*
X0230769Y0138469D01*
X0231202Y0138902D01*
X0232070Y0138902D01*
X0232503Y0138469D01*
X0233715Y0138469D02*
X0233715Y0137601D01*
X0234149Y0137167D01*
X0235450Y0137167D01*
X0235450Y0136300D02*
X0235450Y0138902D01*
X0234149Y0138902D01*
X0233715Y0138469D01*
X0234583Y0137167D02*
X0233715Y0136300D01*
X0232503Y0136300D02*
X0230769Y0138035D01*
X0230769Y0136300D02*
X0232503Y0136300D01*
X0232681Y0133862D02*
X0230319Y0133862D01*
X0230319Y0129138D02*
X0232681Y0129138D01*
X0232503Y0143800D02*
X0230769Y0143800D01*
X0229557Y0144234D02*
X0229123Y0143800D01*
X0228256Y0143800D01*
X0227822Y0144234D01*
X0227822Y0145101D01*
X0228256Y0145535D01*
X0228690Y0145535D01*
X0229557Y0145101D01*
X0229557Y0146402D01*
X0227822Y0146402D01*
X0230769Y0145969D02*
X0231202Y0146402D01*
X0232070Y0146402D01*
X0232503Y0145969D01*
X0233715Y0145969D02*
X0233715Y0145101D01*
X0234149Y0144667D01*
X0235450Y0144667D01*
X0235450Y0143800D02*
X0235450Y0146402D01*
X0234149Y0146402D01*
X0233715Y0145969D01*
X0234583Y0144667D02*
X0233715Y0143800D01*
X0232503Y0143800D02*
X0230769Y0145535D01*
X0230769Y0145969D01*
X0230319Y0149138D02*
X0232681Y0149138D01*
X0232681Y0153862D02*
X0230319Y0153862D01*
X0290319Y0138862D02*
X0292681Y0138862D01*
X0292681Y0134138D02*
X0290319Y0134138D01*
X0291147Y0132952D02*
X0289412Y0132952D01*
X0289412Y0132519D01*
X0291147Y0130784D01*
X0291147Y0130350D01*
X0292358Y0130784D02*
X0292792Y0130350D01*
X0293659Y0130350D01*
X0294093Y0130784D01*
X0294093Y0132519D01*
X0293659Y0132952D01*
X0292792Y0132952D01*
X0292358Y0132519D01*
X0320319Y0139138D02*
X0322681Y0139138D01*
X0322681Y0143862D02*
X0320319Y0143862D01*
X0319557Y0146300D02*
X0317822Y0146300D01*
X0318690Y0146300D02*
X0318690Y0148902D01*
X0319557Y0148035D01*
X0320769Y0148035D02*
X0321202Y0147601D01*
X0320769Y0147167D01*
X0320769Y0146734D01*
X0321202Y0146300D01*
X0322070Y0146300D01*
X0322503Y0146734D01*
X0321636Y0147601D02*
X0321202Y0147601D01*
X0320769Y0148035D02*
X0320769Y0148469D01*
X0321202Y0148902D01*
X0322070Y0148902D01*
X0322503Y0148469D01*
X0323715Y0148469D02*
X0323715Y0147601D01*
X0324149Y0147167D01*
X0325450Y0147167D01*
X0325450Y0146300D02*
X0325450Y0148902D01*
X0324149Y0148902D01*
X0323715Y0148469D01*
X0324583Y0147167D02*
X0323715Y0146300D01*
X0362822Y0158469D02*
X0364557Y0156734D01*
X0364557Y0156300D01*
X0365769Y0156734D02*
X0366202Y0156300D01*
X0367070Y0156300D01*
X0367503Y0156734D01*
X0366636Y0157601D02*
X0366202Y0157601D01*
X0365769Y0157167D01*
X0365769Y0156734D01*
X0366202Y0157601D02*
X0365769Y0158035D01*
X0365769Y0158469D01*
X0366202Y0158902D01*
X0367070Y0158902D01*
X0367503Y0158469D01*
X0368715Y0158469D02*
X0368715Y0157601D01*
X0369149Y0157167D01*
X0370450Y0157167D01*
X0370450Y0156300D02*
X0370450Y0158902D01*
X0369149Y0158902D01*
X0368715Y0158469D01*
X0369583Y0157167D02*
X0368715Y0156300D01*
X0367681Y0153862D02*
X0365319Y0153862D01*
X0365319Y0149138D02*
X0367681Y0149138D01*
X0364557Y0158902D02*
X0362822Y0158902D01*
X0362822Y0158469D01*
X0365319Y0199138D02*
X0367681Y0199138D01*
X0367681Y0203862D02*
X0365319Y0203862D01*
X0366202Y0206300D02*
X0367070Y0206300D01*
X0367503Y0206734D01*
X0366636Y0207601D02*
X0366202Y0207601D01*
X0365769Y0207167D01*
X0365769Y0206734D01*
X0366202Y0206300D01*
X0366202Y0207601D02*
X0365769Y0208035D01*
X0365769Y0208469D01*
X0366202Y0208902D01*
X0367070Y0208902D01*
X0367503Y0208469D01*
X0368715Y0208469D02*
X0368715Y0207601D01*
X0369149Y0207167D01*
X0370450Y0207167D01*
X0370450Y0206300D02*
X0370450Y0208902D01*
X0369149Y0208902D01*
X0368715Y0208469D01*
X0369583Y0207167D02*
X0368715Y0206300D01*
X0364557Y0206734D02*
X0364557Y0207601D01*
X0363256Y0207601D01*
X0362822Y0207167D01*
X0362822Y0206734D01*
X0363256Y0206300D01*
X0364123Y0206300D01*
X0364557Y0206734D01*
X0364557Y0207601D02*
X0363690Y0208469D01*
X0362822Y0208902D01*
X0363256Y0213800D02*
X0364123Y0213800D01*
X0364557Y0214234D01*
X0364557Y0215101D02*
X0363690Y0215535D01*
X0363256Y0215535D01*
X0362822Y0215101D01*
X0362822Y0214234D01*
X0363256Y0213800D01*
X0364557Y0215101D02*
X0364557Y0216402D01*
X0362822Y0216402D01*
X0365769Y0215969D02*
X0365769Y0215535D01*
X0366202Y0215101D01*
X0365769Y0214667D01*
X0365769Y0214234D01*
X0366202Y0213800D01*
X0367070Y0213800D01*
X0367503Y0214234D01*
X0366636Y0215101D02*
X0366202Y0215101D01*
X0365769Y0215969D02*
X0366202Y0216402D01*
X0367070Y0216402D01*
X0367503Y0215969D01*
X0368715Y0215969D02*
X0368715Y0215101D01*
X0369149Y0214667D01*
X0370450Y0214667D01*
X0370450Y0213800D02*
X0370450Y0216402D01*
X0369149Y0216402D01*
X0368715Y0215969D01*
X0369583Y0214667D02*
X0368715Y0213800D01*
X0367681Y0219138D02*
X0365319Y0219138D01*
X0365319Y0223862D02*
X0367681Y0223862D01*
X0325450Y0218902D02*
X0325450Y0216300D01*
X0325450Y0217167D02*
X0324149Y0217167D01*
X0323715Y0217601D01*
X0323715Y0218469D01*
X0324149Y0218902D01*
X0325450Y0218902D01*
X0324583Y0217167D02*
X0323715Y0216300D01*
X0322503Y0216734D02*
X0322070Y0216300D01*
X0321202Y0216300D01*
X0320769Y0216734D01*
X0320769Y0217167D01*
X0321202Y0217601D01*
X0321636Y0217601D01*
X0321202Y0217601D02*
X0320769Y0218035D01*
X0320769Y0218469D01*
X0321202Y0218902D01*
X0322070Y0218902D01*
X0322503Y0218469D01*
X0319557Y0218469D02*
X0319557Y0216734D01*
X0317822Y0218469D01*
X0317822Y0216734D01*
X0318256Y0216300D01*
X0319123Y0216300D01*
X0319557Y0216734D01*
X0319557Y0218469D02*
X0319123Y0218902D01*
X0318256Y0218902D01*
X0317822Y0218469D01*
X0320319Y0213862D02*
X0322681Y0213862D01*
X0322681Y0209138D02*
X0320319Y0209138D01*
X0294093Y0202519D02*
X0294093Y0200784D01*
X0293659Y0200350D01*
X0292792Y0200350D01*
X0292358Y0200784D01*
X0291147Y0200784D02*
X0290713Y0200350D01*
X0289845Y0200350D01*
X0289412Y0200784D01*
X0289412Y0201217D01*
X0289845Y0201651D01*
X0291147Y0201651D01*
X0291147Y0200784D01*
X0291147Y0201651D02*
X0290279Y0202519D01*
X0289412Y0202952D01*
X0290319Y0204138D02*
X0292681Y0204138D01*
X0292792Y0202952D02*
X0293659Y0202952D01*
X0294093Y0202519D01*
X0292792Y0202952D02*
X0292358Y0202519D01*
X0292681Y0208862D02*
X0290319Y0208862D01*
X0235450Y0208902D02*
X0235450Y0206300D01*
X0235450Y0207167D02*
X0234149Y0207167D01*
X0233715Y0207601D01*
X0233715Y0208469D01*
X0234149Y0208902D01*
X0235450Y0208902D01*
X0234583Y0207167D02*
X0233715Y0206300D01*
X0232503Y0206300D02*
X0230769Y0208035D01*
X0230769Y0208469D01*
X0231202Y0208902D01*
X0232070Y0208902D01*
X0232503Y0208469D01*
X0232503Y0206300D02*
X0230769Y0206300D01*
X0229557Y0207601D02*
X0227822Y0207601D01*
X0228256Y0206300D02*
X0228256Y0208902D01*
X0229557Y0207601D01*
X0230319Y0203862D02*
X0232681Y0203862D01*
X0232681Y0199138D02*
X0230319Y0199138D01*
X0230769Y0213800D02*
X0232503Y0213800D01*
X0230769Y0215535D01*
X0230769Y0215969D01*
X0231202Y0216402D01*
X0232070Y0216402D01*
X0232503Y0215969D01*
X0233715Y0215969D02*
X0233715Y0215101D01*
X0234149Y0214667D01*
X0235450Y0214667D01*
X0235450Y0213800D02*
X0235450Y0216402D01*
X0234149Y0216402D01*
X0233715Y0215969D01*
X0234583Y0214667D02*
X0233715Y0213800D01*
X0229557Y0214234D02*
X0229123Y0213800D01*
X0228256Y0213800D01*
X0227822Y0214234D01*
X0227822Y0214667D01*
X0228256Y0215101D01*
X0228690Y0215101D01*
X0228256Y0215101D02*
X0227822Y0215535D01*
X0227822Y0215969D01*
X0228256Y0216402D01*
X0229123Y0216402D01*
X0229557Y0215969D01*
X0230319Y0219138D02*
X0232681Y0219138D01*
X0232681Y0223862D02*
X0230319Y0223862D01*
X0190450Y0218902D02*
X0190450Y0216300D01*
X0190450Y0217167D02*
X0189149Y0217167D01*
X0188715Y0217601D01*
X0188715Y0218469D01*
X0189149Y0218902D01*
X0190450Y0218902D01*
X0189583Y0217167D02*
X0188715Y0216300D01*
X0187503Y0216300D02*
X0185769Y0216300D01*
X0186636Y0216300D02*
X0186636Y0218902D01*
X0187503Y0218035D01*
X0184557Y0218035D02*
X0184557Y0218469D01*
X0184123Y0218902D01*
X0183256Y0218902D01*
X0182822Y0218469D01*
X0182822Y0218035D01*
X0183256Y0217601D01*
X0184123Y0217601D01*
X0184557Y0218035D01*
X0184123Y0217601D02*
X0184557Y0217167D01*
X0184557Y0216734D01*
X0184123Y0216300D01*
X0183256Y0216300D01*
X0182822Y0216734D01*
X0182822Y0217167D01*
X0183256Y0217601D01*
X0185319Y0213862D02*
X0187681Y0213862D01*
X0187681Y0209138D02*
X0185319Y0209138D01*
X0159093Y0202519D02*
X0159093Y0200784D01*
X0158659Y0200350D01*
X0157792Y0200350D01*
X0157358Y0200784D01*
X0156147Y0200350D02*
X0154412Y0202085D01*
X0154412Y0202519D01*
X0154845Y0202952D01*
X0155713Y0202952D01*
X0156147Y0202519D01*
X0157358Y0202519D02*
X0157792Y0202952D01*
X0158659Y0202952D01*
X0159093Y0202519D01*
X0157681Y0204138D02*
X0155319Y0204138D01*
X0156147Y0200350D02*
X0154412Y0200350D01*
X0155319Y0208862D02*
X0157681Y0208862D01*
X0425069Y0138862D02*
X0427431Y0138862D01*
X0427431Y0134138D02*
X0425069Y0134138D01*
X0423779Y0132952D02*
X0423779Y0130350D01*
X0422912Y0130350D02*
X0424647Y0130350D01*
X0425858Y0130350D02*
X0427593Y0130350D01*
X0426726Y0130350D02*
X0426726Y0132952D01*
X0427593Y0132085D01*
X0428805Y0132519D02*
X0429238Y0132952D01*
X0430106Y0132952D01*
X0430540Y0132519D01*
X0430540Y0130784D01*
X0430106Y0130350D01*
X0429238Y0130350D01*
X0428805Y0130784D01*
X0424647Y0132085D02*
X0423779Y0132952D01*
X0522822Y0156300D02*
X0524557Y0156300D01*
X0523690Y0156300D02*
X0523690Y0158902D01*
X0524557Y0158035D01*
X0525769Y0157601D02*
X0525769Y0156734D01*
X0526202Y0156300D01*
X0527070Y0156300D01*
X0527503Y0156734D01*
X0527503Y0157601D02*
X0526636Y0158035D01*
X0526202Y0158035D01*
X0525769Y0157601D01*
X0525769Y0158902D02*
X0527503Y0158902D01*
X0527503Y0157601D01*
X0528715Y0157601D02*
X0529149Y0157167D01*
X0530450Y0157167D01*
X0530450Y0156300D02*
X0530450Y0158902D01*
X0529149Y0158902D01*
X0528715Y0158469D01*
X0528715Y0157601D01*
X0529583Y0157167D02*
X0528715Y0156300D01*
X0527681Y0153862D02*
X0525319Y0153862D01*
X0525319Y0149138D02*
X0527681Y0149138D01*
X0527681Y0194138D02*
X0525319Y0194138D01*
X0525319Y0198862D02*
X0527681Y0198862D01*
X0527070Y0201300D02*
X0527503Y0201734D01*
X0527070Y0201300D02*
X0526202Y0201300D01*
X0525769Y0201734D01*
X0525769Y0202601D01*
X0526202Y0203035D01*
X0526636Y0203035D01*
X0527503Y0202601D01*
X0527503Y0203902D01*
X0525769Y0203902D01*
X0524557Y0203469D02*
X0524557Y0201734D01*
X0522822Y0203469D01*
X0522822Y0201734D01*
X0523256Y0201300D01*
X0524123Y0201300D01*
X0524557Y0201734D01*
X0524557Y0203469D02*
X0524123Y0203902D01*
X0523256Y0203902D01*
X0522822Y0203469D01*
X0528715Y0203469D02*
X0528715Y0202601D01*
X0529149Y0202167D01*
X0530450Y0202167D01*
X0530450Y0201300D02*
X0530450Y0203902D01*
X0529149Y0203902D01*
X0528715Y0203469D01*
X0529583Y0202167D02*
X0528715Y0201300D01*
X0527681Y0284138D02*
X0525319Y0284138D01*
X0525319Y0288862D02*
X0527681Y0288862D01*
X0528715Y0291300D02*
X0529583Y0292167D01*
X0529149Y0292167D02*
X0530450Y0292167D01*
X0530450Y0291300D02*
X0530450Y0293902D01*
X0529149Y0293902D01*
X0528715Y0293469D01*
X0528715Y0292601D01*
X0529149Y0292167D01*
X0527503Y0292601D02*
X0525769Y0292601D01*
X0524557Y0292167D02*
X0524123Y0292601D01*
X0523256Y0292601D01*
X0522822Y0292167D01*
X0522822Y0291734D01*
X0523256Y0291300D01*
X0524123Y0291300D01*
X0524557Y0291734D01*
X0524557Y0292167D01*
X0524123Y0292601D02*
X0524557Y0293035D01*
X0524557Y0293469D01*
X0524123Y0293902D01*
X0523256Y0293902D01*
X0522822Y0293469D01*
X0522822Y0293035D01*
X0523256Y0292601D01*
X0526202Y0291300D02*
X0526202Y0293902D01*
X0527503Y0292601D01*
D13*
X0050959Y0312445D02*
X0050959Y0330555D01*
X0049187Y0330555D01*
X0041313Y0330555D02*
X0039541Y0330555D01*
X0039541Y0312445D01*
X0041313Y0312445D01*
X0041313Y0317563D02*
X0049187Y0317563D01*
X0049187Y0312445D02*
X0050959Y0312445D01*
D14*
X0136382Y0281500D02*
X0136421Y0281500D01*
X0136421Y0211500D02*
X0136382Y0211500D01*
X0136421Y0141500D02*
X0136382Y0141500D01*
X0136421Y0071500D02*
X0136382Y0071500D01*
X0271382Y0071500D02*
X0271421Y0071500D01*
X0271421Y0141500D02*
X0271382Y0141500D01*
X0271421Y0211500D02*
X0271382Y0211500D01*
X0271421Y0281500D02*
X0271382Y0281500D01*
X0406382Y0281500D02*
X0406421Y0281500D01*
X0496382Y0281500D02*
X0496421Y0281500D01*
X0496421Y0236500D02*
X0496382Y0236500D01*
X0496421Y0191500D02*
X0496382Y0191500D01*
X0496421Y0146500D02*
X0496382Y0146500D01*
X0496421Y0101500D02*
X0496382Y0101500D01*
X0406421Y0071500D02*
X0406382Y0071500D01*
X0406421Y0141500D02*
X0406382Y0141500D01*
X0406421Y0211500D02*
X0406382Y0211500D01*
D15*
X0408350Y0217091D02*
X0414650Y0217091D01*
X0414650Y0205909D02*
X0408350Y0205909D01*
X0408350Y0147091D02*
X0414650Y0147091D01*
X0414650Y0135909D02*
X0408350Y0135909D01*
X0408350Y0077091D02*
X0414650Y0077091D01*
X0414650Y0065909D02*
X0408350Y0065909D01*
X0498350Y0095909D02*
X0504650Y0095909D01*
X0504650Y0107091D02*
X0498350Y0107091D01*
X0498350Y0140909D02*
X0504650Y0140909D01*
X0504650Y0152091D02*
X0498350Y0152091D01*
X0498350Y0185909D02*
X0504650Y0185909D01*
X0504650Y0197091D02*
X0498350Y0197091D01*
X0498350Y0230909D02*
X0504650Y0230909D01*
X0504650Y0242091D02*
X0498350Y0242091D01*
X0498350Y0275909D02*
X0504650Y0275909D01*
X0504650Y0287091D02*
X0498350Y0287091D01*
X0414650Y0287091D02*
X0408350Y0287091D01*
X0408350Y0275909D02*
X0414650Y0275909D01*
X0279650Y0275909D02*
X0273350Y0275909D01*
X0273350Y0287091D02*
X0279650Y0287091D01*
X0279650Y0217091D02*
X0273350Y0217091D01*
X0273350Y0205909D02*
X0279650Y0205909D01*
X0279650Y0147091D02*
X0273350Y0147091D01*
X0273350Y0135909D02*
X0279650Y0135909D01*
X0279650Y0077091D02*
X0273350Y0077091D01*
X0273350Y0065909D02*
X0279650Y0065909D01*
X0144650Y0065909D02*
X0138350Y0065909D01*
X0138350Y0077091D02*
X0144650Y0077091D01*
X0144650Y0135909D02*
X0138350Y0135909D01*
X0138350Y0147091D02*
X0144650Y0147091D01*
X0144650Y0205909D02*
X0138350Y0205909D01*
X0138350Y0217091D02*
X0144650Y0217091D01*
X0144650Y0275909D02*
X0138350Y0275909D01*
X0138350Y0287091D02*
X0144650Y0287091D01*
D16*
X0144059Y0286539D02*
X0138902Y0286539D01*
X0138902Y0276500D01*
X0144059Y0276500D01*
X0144059Y0286539D01*
X0144059Y0216539D02*
X0138902Y0216539D01*
X0138902Y0206500D01*
X0144059Y0206500D01*
X0144059Y0216539D01*
X0144059Y0146539D02*
X0138902Y0146539D01*
X0138902Y0136500D01*
X0144059Y0136500D01*
X0144059Y0146539D01*
X0144059Y0076539D02*
X0138902Y0076539D01*
X0138902Y0066500D01*
X0144059Y0066500D01*
X0144059Y0076539D01*
X0273902Y0076539D02*
X0273902Y0066500D01*
X0279059Y0066500D01*
X0279059Y0076539D01*
X0273902Y0076539D01*
X0273902Y0136500D02*
X0279059Y0136500D01*
X0279059Y0146539D01*
X0273902Y0146539D01*
X0273902Y0136500D01*
X0273902Y0206500D02*
X0279059Y0206500D01*
X0279059Y0216539D01*
X0273902Y0216539D01*
X0273902Y0206500D01*
X0273902Y0276500D02*
X0279059Y0276500D01*
X0279059Y0286539D01*
X0273902Y0286539D01*
X0273902Y0276500D01*
X0408902Y0276500D02*
X0414059Y0276500D01*
X0414059Y0286539D01*
X0408902Y0286539D01*
X0408902Y0276500D01*
X0408902Y0216539D02*
X0408902Y0206500D01*
X0414059Y0206500D01*
X0414059Y0216539D01*
X0408902Y0216539D01*
X0498902Y0231500D02*
X0504059Y0231500D01*
X0504059Y0241539D01*
X0498902Y0241539D01*
X0498902Y0231500D01*
X0498902Y0196539D02*
X0498902Y0186500D01*
X0504059Y0186500D01*
X0504059Y0196539D01*
X0498902Y0196539D01*
X0498902Y0151539D02*
X0498902Y0141500D01*
X0504059Y0141500D01*
X0504059Y0151539D01*
X0498902Y0151539D01*
X0498902Y0106539D02*
X0498902Y0096500D01*
X0504059Y0096500D01*
X0504059Y0106539D01*
X0498902Y0106539D01*
X0414059Y0136500D02*
X0408902Y0136500D01*
X0408902Y0146539D01*
X0414059Y0146539D01*
X0414059Y0136500D01*
X0414059Y0076539D02*
X0408902Y0076539D01*
X0408902Y0066500D01*
X0414059Y0066500D01*
X0414059Y0076539D01*
X0498902Y0276500D02*
X0504059Y0276500D01*
X0504059Y0286539D01*
X0498902Y0286539D01*
X0498902Y0276500D01*
D17*
X0511700Y0277071D02*
X0511700Y0275537D01*
X0512467Y0274769D01*
X0515537Y0274769D01*
X0516304Y0275537D01*
X0516304Y0277071D01*
X0515537Y0277839D01*
X0514769Y0279373D02*
X0516304Y0280908D01*
X0511700Y0280908D01*
X0511700Y0282442D02*
X0511700Y0279373D01*
X0512467Y0277839D02*
X0511700Y0277071D01*
X0511700Y0273235D02*
X0511700Y0271700D01*
X0511700Y0272467D02*
X0516304Y0272467D01*
X0516304Y0271700D02*
X0516304Y0273235D01*
X0515537Y0283977D02*
X0516304Y0284744D01*
X0516304Y0286279D01*
X0515537Y0287046D01*
X0514769Y0287046D01*
X0514002Y0286279D01*
X0513235Y0287046D01*
X0512467Y0287046D01*
X0511700Y0286279D01*
X0511700Y0284744D01*
X0512467Y0283977D01*
X0514002Y0285512D02*
X0514002Y0286279D01*
X0514002Y0242046D02*
X0514002Y0238977D01*
X0516304Y0241279D01*
X0511700Y0241279D01*
X0511700Y0237442D02*
X0511700Y0234373D01*
X0511700Y0235908D02*
X0516304Y0235908D01*
X0514769Y0234373D01*
X0515537Y0232839D02*
X0516304Y0232071D01*
X0516304Y0230537D01*
X0515537Y0229769D01*
X0512467Y0229769D01*
X0511700Y0230537D01*
X0511700Y0232071D01*
X0512467Y0232839D01*
X0511700Y0228235D02*
X0511700Y0226700D01*
X0511700Y0227467D02*
X0516304Y0227467D01*
X0516304Y0226700D02*
X0516304Y0228235D01*
X0516304Y0197046D02*
X0516304Y0193977D01*
X0514002Y0193977D01*
X0514769Y0195512D01*
X0514769Y0196279D01*
X0514002Y0197046D01*
X0512467Y0197046D01*
X0511700Y0196279D01*
X0511700Y0194744D01*
X0512467Y0193977D01*
X0511700Y0192442D02*
X0511700Y0189373D01*
X0511700Y0190908D02*
X0516304Y0190908D01*
X0514769Y0189373D01*
X0515537Y0187839D02*
X0516304Y0187071D01*
X0516304Y0185537D01*
X0515537Y0184769D01*
X0512467Y0184769D01*
X0511700Y0185537D01*
X0511700Y0187071D01*
X0512467Y0187839D01*
X0511700Y0183235D02*
X0511700Y0181700D01*
X0511700Y0182467D02*
X0516304Y0182467D01*
X0516304Y0181700D02*
X0516304Y0183235D01*
X0516304Y0152046D02*
X0515537Y0150512D01*
X0514002Y0148977D01*
X0514002Y0151279D01*
X0513235Y0152046D01*
X0512467Y0152046D01*
X0511700Y0151279D01*
X0511700Y0149744D01*
X0512467Y0148977D01*
X0514002Y0148977D01*
X0511700Y0147442D02*
X0511700Y0144373D01*
X0511700Y0145908D02*
X0516304Y0145908D01*
X0514769Y0144373D01*
X0515537Y0142839D02*
X0516304Y0142071D01*
X0516304Y0140537D01*
X0515537Y0139769D01*
X0512467Y0139769D01*
X0511700Y0140537D01*
X0511700Y0142071D01*
X0512467Y0142839D01*
X0511700Y0138235D02*
X0511700Y0136700D01*
X0511700Y0137467D02*
X0516304Y0137467D01*
X0516304Y0136700D02*
X0516304Y0138235D01*
X0516304Y0107046D02*
X0515537Y0107046D01*
X0512467Y0103977D01*
X0511700Y0103977D01*
X0511700Y0102442D02*
X0511700Y0099373D01*
X0511700Y0100908D02*
X0516304Y0100908D01*
X0514769Y0099373D01*
X0515537Y0097839D02*
X0516304Y0097071D01*
X0516304Y0095537D01*
X0515537Y0094769D01*
X0512467Y0094769D01*
X0511700Y0095537D01*
X0511700Y0097071D01*
X0512467Y0097839D01*
X0511700Y0093235D02*
X0511700Y0091700D01*
X0511700Y0092467D02*
X0516304Y0092467D01*
X0516304Y0091700D02*
X0516304Y0093235D01*
X0516304Y0103977D02*
X0516304Y0107046D01*
X0421300Y0086304D02*
X0419765Y0086304D01*
X0420533Y0086304D02*
X0420533Y0081700D01*
X0421300Y0081700D02*
X0419765Y0081700D01*
X0418231Y0082467D02*
X0417463Y0081700D01*
X0415929Y0081700D01*
X0415161Y0082467D01*
X0413627Y0081700D02*
X0410558Y0081700D01*
X0412092Y0081700D02*
X0412092Y0086304D01*
X0413627Y0084769D01*
X0415161Y0085537D02*
X0415929Y0086304D01*
X0417463Y0086304D01*
X0418231Y0085537D01*
X0418231Y0082467D01*
X0409023Y0081700D02*
X0405954Y0084769D01*
X0405954Y0085537D01*
X0406721Y0086304D01*
X0408256Y0086304D01*
X0409023Y0085537D01*
X0409023Y0081700D02*
X0405954Y0081700D01*
X0405954Y0151700D02*
X0409023Y0151700D01*
X0410558Y0151700D02*
X0413627Y0151700D01*
X0412092Y0151700D02*
X0412092Y0156304D01*
X0413627Y0154769D01*
X0415161Y0155537D02*
X0415929Y0156304D01*
X0417463Y0156304D01*
X0418231Y0155537D01*
X0418231Y0152467D01*
X0417463Y0151700D01*
X0415929Y0151700D01*
X0415161Y0152467D01*
X0419765Y0151700D02*
X0421300Y0151700D01*
X0420533Y0151700D02*
X0420533Y0156304D01*
X0421300Y0156304D02*
X0419765Y0156304D01*
X0409023Y0154769D02*
X0407488Y0156304D01*
X0407488Y0151700D01*
X0406721Y0221700D02*
X0408256Y0221700D01*
X0409023Y0222467D01*
X0405954Y0225537D01*
X0405954Y0222467D01*
X0406721Y0221700D01*
X0409023Y0222467D02*
X0409023Y0225537D01*
X0408256Y0226304D01*
X0406721Y0226304D01*
X0405954Y0225537D01*
X0410558Y0221700D02*
X0413627Y0221700D01*
X0412092Y0221700D02*
X0412092Y0226304D01*
X0413627Y0224769D01*
X0415161Y0225537D02*
X0415929Y0226304D01*
X0417463Y0226304D01*
X0418231Y0225537D01*
X0418231Y0222467D01*
X0417463Y0221700D01*
X0415929Y0221700D01*
X0415161Y0222467D01*
X0419765Y0221700D02*
X0421300Y0221700D01*
X0420533Y0221700D02*
X0420533Y0226304D01*
X0421300Y0226304D02*
X0419765Y0226304D01*
X0416300Y0291700D02*
X0414765Y0291700D01*
X0415533Y0291700D02*
X0415533Y0296304D01*
X0416300Y0296304D02*
X0414765Y0296304D01*
X0413231Y0295537D02*
X0413231Y0292467D01*
X0412463Y0291700D01*
X0410929Y0291700D01*
X0410161Y0292467D01*
X0408627Y0292467D02*
X0407859Y0291700D01*
X0406325Y0291700D01*
X0405558Y0292467D01*
X0405558Y0295537D01*
X0406325Y0296304D01*
X0407859Y0296304D01*
X0408627Y0295537D01*
X0408627Y0294769D01*
X0407859Y0294002D01*
X0405558Y0294002D01*
X0410161Y0295537D02*
X0410929Y0296304D01*
X0412463Y0296304D01*
X0413231Y0295537D01*
X0281300Y0296304D02*
X0279765Y0296304D01*
X0280533Y0296304D02*
X0280533Y0291700D01*
X0281300Y0291700D02*
X0279765Y0291700D01*
X0278231Y0292467D02*
X0277463Y0291700D01*
X0275929Y0291700D01*
X0275161Y0292467D01*
X0273627Y0292467D02*
X0272859Y0291700D01*
X0271325Y0291700D01*
X0270558Y0292467D01*
X0270558Y0294002D01*
X0271325Y0294769D01*
X0272092Y0294769D01*
X0273627Y0294002D01*
X0273627Y0296304D01*
X0270558Y0296304D01*
X0275161Y0295537D02*
X0275929Y0296304D01*
X0277463Y0296304D01*
X0278231Y0295537D01*
X0278231Y0292467D01*
X0277463Y0226304D02*
X0275929Y0226304D01*
X0275161Y0225537D01*
X0273627Y0224002D02*
X0272092Y0225537D01*
X0270558Y0226304D01*
X0271325Y0224002D02*
X0270558Y0223235D01*
X0270558Y0222467D01*
X0271325Y0221700D01*
X0272859Y0221700D01*
X0273627Y0222467D01*
X0273627Y0224002D01*
X0271325Y0224002D01*
X0275161Y0222467D02*
X0275929Y0221700D01*
X0277463Y0221700D01*
X0278231Y0222467D01*
X0278231Y0225537D01*
X0277463Y0226304D01*
X0279765Y0226304D02*
X0281300Y0226304D01*
X0280533Y0226304D02*
X0280533Y0221700D01*
X0281300Y0221700D02*
X0279765Y0221700D01*
X0279765Y0156304D02*
X0281300Y0156304D01*
X0280533Y0156304D02*
X0280533Y0151700D01*
X0281300Y0151700D02*
X0279765Y0151700D01*
X0278231Y0152467D02*
X0277463Y0151700D01*
X0275929Y0151700D01*
X0275161Y0152467D01*
X0273627Y0152467D02*
X0273627Y0151700D01*
X0273627Y0152467D02*
X0270558Y0155537D01*
X0270558Y0156304D01*
X0273627Y0156304D01*
X0275161Y0155537D02*
X0275929Y0156304D01*
X0277463Y0156304D01*
X0278231Y0155537D01*
X0278231Y0152467D01*
X0277463Y0086304D02*
X0275929Y0086304D01*
X0275161Y0085537D01*
X0273627Y0085537D02*
X0273627Y0084769D01*
X0272859Y0084002D01*
X0271325Y0084002D01*
X0270558Y0083235D01*
X0270558Y0082467D01*
X0271325Y0081700D01*
X0272859Y0081700D01*
X0273627Y0082467D01*
X0273627Y0083235D01*
X0272859Y0084002D01*
X0271325Y0084002D02*
X0270558Y0084769D01*
X0270558Y0085537D01*
X0271325Y0086304D01*
X0272859Y0086304D01*
X0273627Y0085537D01*
X0275161Y0082467D02*
X0275929Y0081700D01*
X0277463Y0081700D01*
X0278231Y0082467D01*
X0278231Y0085537D01*
X0277463Y0086304D01*
X0279765Y0086304D02*
X0281300Y0086304D01*
X0280533Y0086304D02*
X0280533Y0081700D01*
X0281300Y0081700D02*
X0279765Y0081700D01*
X0146300Y0081700D02*
X0144765Y0081700D01*
X0145533Y0081700D02*
X0145533Y0086304D01*
X0146300Y0086304D02*
X0144765Y0086304D01*
X0143231Y0085537D02*
X0143231Y0082467D01*
X0142463Y0081700D01*
X0140929Y0081700D01*
X0140161Y0082467D01*
X0138627Y0084002D02*
X0135558Y0084002D01*
X0136325Y0086304D02*
X0138627Y0084002D01*
X0140161Y0085537D02*
X0140929Y0086304D01*
X0142463Y0086304D01*
X0143231Y0085537D01*
X0136325Y0086304D02*
X0136325Y0081700D01*
X0136325Y0151700D02*
X0137859Y0151700D01*
X0138627Y0152467D01*
X0140161Y0152467D02*
X0140929Y0151700D01*
X0142463Y0151700D01*
X0143231Y0152467D01*
X0143231Y0155537D01*
X0142463Y0156304D01*
X0140929Y0156304D01*
X0140161Y0155537D01*
X0138627Y0155537D02*
X0137859Y0156304D01*
X0136325Y0156304D01*
X0135558Y0155537D01*
X0135558Y0154769D01*
X0136325Y0154002D01*
X0135558Y0153235D01*
X0135558Y0152467D01*
X0136325Y0151700D01*
X0136325Y0154002D02*
X0137092Y0154002D01*
X0144765Y0156304D02*
X0146300Y0156304D01*
X0145533Y0156304D02*
X0145533Y0151700D01*
X0146300Y0151700D02*
X0144765Y0151700D01*
X0144765Y0221700D02*
X0146300Y0221700D01*
X0145533Y0221700D02*
X0145533Y0226304D01*
X0146300Y0226304D02*
X0144765Y0226304D01*
X0143231Y0225537D02*
X0143231Y0222467D01*
X0142463Y0221700D01*
X0140929Y0221700D01*
X0140161Y0222467D01*
X0138627Y0221700D02*
X0135558Y0224769D01*
X0135558Y0225537D01*
X0136325Y0226304D01*
X0137859Y0226304D01*
X0138627Y0225537D01*
X0140161Y0225537D02*
X0140929Y0226304D01*
X0142463Y0226304D01*
X0143231Y0225537D01*
X0138627Y0221700D02*
X0135558Y0221700D01*
X0135558Y0291700D02*
X0138627Y0291700D01*
X0137092Y0291700D02*
X0137092Y0296304D01*
X0138627Y0294769D01*
X0140161Y0295537D02*
X0140929Y0296304D01*
X0142463Y0296304D01*
X0143231Y0295537D01*
X0143231Y0292467D01*
X0142463Y0291700D01*
X0140929Y0291700D01*
X0140161Y0292467D01*
X0144765Y0291700D02*
X0146300Y0291700D01*
X0145533Y0291700D02*
X0145533Y0296304D01*
X0146300Y0296304D02*
X0144765Y0296304D01*
M02*
